<svg width="25" height="25" viewBox="0 0 25 25" fill="none" xmlns="http://www.w3.org/2000/svg">
<path fill-rule="evenodd" clip-rule="evenodd" d="M15.7533 8.79532L15.1002 10.9375H13.4346L16.2299 2.60626H18.158L20.9408 10.9375H19.1908L18.5361 8.79532H15.7533ZM18.2064 7.56876L17.1877 4.19845H17.1143L16.0955 7.56876H18.2064Z" fill="#111111"/>
<path d="M20.25 21.875H14.1063V20.7953L18.1359 14.9828V14.8984H14.2156V13.5438H20.1297V14.6234L16.1188 20.4359V20.5203H20.2516V21.875H20.25ZM7.03126 3.90625C7.03126 3.69905 6.94895 3.50034 6.80244 3.35382C6.65592 3.20731 6.45721 3.125 6.25001 3.125C6.04281 3.125 5.8441 3.20731 5.69758 3.35382C5.55107 3.50034 5.46876 3.69905 5.46876 3.90625V19.2078L3.67814 17.4156C3.6055 17.343 3.51926 17.2854 3.42436 17.2461C3.32945 17.2067 3.22774 17.1865 3.12501 17.1865C3.02229 17.1865 2.92057 17.2067 2.82566 17.2461C2.73076 17.2854 2.64452 17.343 2.57189 17.4156C2.49925 17.4883 2.44163 17.5745 2.40232 17.6694C2.36301 17.7643 2.34277 17.866 2.34277 17.9688C2.34277 18.0715 2.36301 18.1732 2.40232 18.2681C2.44163 18.363 2.49925 18.4492 2.57189 18.5219L5.69689 21.6453L5.70782 21.6562C5.8545 21.7993 6.05176 21.8786 6.25663 21.8768C6.46149 21.875 6.65737 21.7924 6.80157 21.6469L9.92657 18.5219C10.0733 18.3754 10.1558 18.1766 10.1559 17.9693C10.1561 17.762 10.0738 17.5631 9.92735 17.4164C9.78086 17.2697 9.5821 17.1872 9.37478 17.1871C9.16747 17.1869 8.96858 17.2691 8.82188 17.4156L7.03126 19.2078V3.90625Z" fill="#111111"/>
</svg>
