<svg width="25" height="25" viewBox="0 0 25 25" fill="none" xmlns="http://www.w3.org/2000/svg">
<path fill-rule="evenodd" clip-rule="evenodd" d="M15.7533 8.79532L15.1002 10.9375H13.4346L16.2299 2.60626H18.158L20.9408 10.9375H19.1908L18.5361 8.79532H15.7533ZM18.2064 7.56876L17.1877 4.19845H17.1143L16.0955 7.56876H18.2064Z" fill="#111111"/>
<path d="M20.25 21.875H14.1063V20.7953L18.1359 14.9828V14.8984H14.2156V13.5437H20.1297V14.6234L16.1188 20.4359V20.5203H20.2516V21.875H20.25ZM7.03126 21.0937C7.03126 21.3009 6.94895 21.4997 6.80244 21.6462C6.65592 21.7927 6.45721 21.875 6.25001 21.875C6.04281 21.875 5.8441 21.7927 5.69758 21.6462C5.55107 21.4997 5.46876 21.3009 5.46876 21.0937V5.79219L3.67814 7.58437C3.6055 7.65701 3.51926 7.71463 3.42436 7.75394C3.32945 7.79325 3.22774 7.81349 3.12501 7.81349C3.02229 7.81349 2.92057 7.79325 2.82566 7.75394C2.73076 7.71463 2.64452 7.65701 2.57189 7.58437C2.49925 7.51174 2.44163 7.4255 2.40232 7.3306C2.36301 7.23569 2.34277 7.13397 2.34277 7.03125C2.34277 6.92852 2.36301 6.8268 2.40232 6.7319C2.44163 6.63699 2.49925 6.55076 2.57189 6.47812L5.69689 3.35469L5.70782 3.34375C5.8547 3.2011 6.05188 3.12208 6.25662 3.12384C6.46136 3.12559 6.65716 3.20797 6.80157 3.35312L9.92657 6.47812C9.99921 6.55066 10.0568 6.63679 10.0962 6.7316C10.1355 6.82641 10.1558 6.92804 10.1559 7.0307C10.156 7.13335 10.1358 7.23501 10.0966 7.32988C10.0574 7.42474 9.99989 7.51095 9.92735 7.58359C9.85482 7.65623 9.76869 7.71387 9.67388 7.75322C9.57907 7.79257 9.47743 7.81286 9.37478 7.81293C9.27213 7.813 9.17047 7.79286 9.0756 7.75364C8.98074 7.71443 8.89452 7.65691 8.82188 7.58437L7.03126 5.79219V21.0937Z" fill="#111111"/>
</svg>
