<svg width="30" height="30" viewBox="0 0 30 30" fill="none" xmlns="http://www.w3.org/2000/svg">
<path d="M0.791016 5.67188C0.550781 5.43164 0.433594 5.12695 0.433594 4.75781C0.433594 4.38867 0.550781 4.08398 0.791016 3.84375C1.03125 3.60352 1.33594 3.48633 1.70508 3.48633H28.4355C28.8047 3.48633 29.1094 3.60352 29.3496 3.84375C29.5898 4.08398 29.707 4.38867 29.707 4.75781C29.707 5.12695 29.5898 5.43164 29.3496 5.67188C29.1094 5.91211 28.8047 6.0293 28.4355 6.0293H1.70508C1.33594 6.0293 1.03125 5.91211 0.791016 5.67188ZM29.3496 14.0273C29.5898 14.2676 29.707 14.5723 29.707 14.9414C29.707 15.3105 29.5898 15.6152 29.3496 15.8555C29.1094 16.0957 28.8047 16.2129 28.4355 16.2129H1.70508C1.33594 16.2129 1.03125 16.0957 0.791016 15.8555C0.550781 15.6152 0.433594 15.3105 0.433594 14.9414C0.433594 14.5723 0.550781 14.2676 0.791016 14.0273C1.03125 13.7871 1.33594 13.6699 1.70508 13.6699H28.4355C28.8047 13.6699 29.1094 13.7871 29.3496 14.0273ZM29.3496 24.2051C29.5898 24.4453 29.707 24.75 29.707 25.1191C29.707 25.4883 29.5898 25.793 29.3496 26.0332C29.1094 26.2734 28.8047 26.3906 28.4355 26.3906H1.70508C1.33594 26.3906 1.03125 26.2734 0.791016 26.0332C0.550781 25.793 0.433594 25.4883 0.433594 25.1191C0.433594 24.75 0.550781 24.4453 0.791016 24.2051C1.03125 23.9648 1.33594 23.8477 1.70508 23.8477H28.4355C28.8047 23.8477 29.1094 23.9707 29.3496 24.2051Z" fill="white"/>
</svg>
