<svg width="30" height="30" viewBox="0 0 30 30" fill="none" xmlns="http://www.w3.org/2000/svg">
<path d="M9.9375 22.125C8.59676 22.125 7.5 23.2218 7.5 24.5626C7.5 25.9033 8.59676 27.0001 9.9375 27.0001C11.2782 27.0001 12.3751 25.9033 12.3751 24.5626C12.375 23.2217 11.2782 22.125 9.9375 22.125ZM2.8125 3V5.4375H5.25L9.63768 14.3251L7.80322 17.3107C7.62053 17.6154 7.49854 18.0421 7.49854 18.4688C7.49854 20.1006 8.61328 20.9063 10.125 20.9063H24.375V18.5626H10.4234C10.2407 18.5626 10.1187 18.4406 10.1187 18.2579C10.1187 18.1972 10.248 17.9532 10.248 17.9532L11.4657 16.0313H20.5451C21.4592 16.0313 22.2518 15.544 22.6779 14.7519L27.0655 7.20498C27.138 7.06078 27.1875 6.839 27.1875 6.59566C27.1875 5.925 26.6388 5.43756 25.9688 5.43756H7.93148L6.77344 3H2.8125ZM21.9374 22.125C20.5967 22.125 19.4999 23.2218 19.4999 24.5626C19.4999 25.9033 20.5967 27.0001 21.9374 27.0001C23.2782 27.0001 24.375 25.9032 24.375 24.5625C24.375 23.2217 23.2782 22.125 21.9374 22.125Z" fill="white"/>
</svg>
