<svg width="41" height="41" viewBox="0 0 41 41" fill="none" xmlns="http://www.w3.org/2000/svg">
<path d="M23.1516 20.5L30.5735 13.0781C30.9257 12.7265 31.1238 12.2494 31.1243 11.7517C31.1247 11.254 30.9274 10.7765 30.5758 10.4242C30.2242 10.072 29.747 9.87386 29.2493 9.87342C28.7516 9.87298 28.2741 10.0703 27.9219 10.4219L20.5 17.8438L13.0781 10.4219C12.7259 10.0697 12.2482 9.87177 11.75 9.87177C11.2519 9.87177 10.7741 10.0697 10.4219 10.4219C10.0697 10.7741 9.87177 11.2519 9.87177 11.75C9.87177 12.2482 10.0697 12.7259 10.4219 13.0781L17.8438 20.5L10.4219 27.9219C10.0697 28.2741 9.87177 28.7519 9.87177 29.25C9.87177 29.7482 10.0697 30.2259 10.4219 30.5781C10.7741 30.9304 11.2519 31.1283 11.75 31.1283C12.2482 31.1283 12.7259 30.9304 13.0781 30.5781L20.5 23.1563L27.9219 30.5781C28.2741 30.9304 28.7519 31.1283 29.25 31.1283C29.7482 31.1283 30.2259 30.9304 30.5781 30.5781C30.9304 30.2259 31.1283 29.7482 31.1283 29.25C31.1283 28.7519 30.9304 28.2741 30.5781 27.9219L23.1516 20.5Z" fill="#111111"/>
</svg>
