<svg width="30" height="30" viewBox="0 0 30 30" fill="none" xmlns="http://www.w3.org/2000/svg">
<path d="M7.13206 1.87501C7.09317 1.87465 7.05481 1.88397 7.02043 1.90213C6.98605 1.9203 6.95673 1.94673 6.9351 1.97904C6.91348 2.01136 6.90024 2.04855 6.89657 2.08726C6.8929 2.12597 6.89892 2.16499 6.91409 2.20079L7.04885 2.51896L9.43362 8.0795C9.44983 8.11732 9.4757 8.15021 9.50865 8.17486C9.5416 8.1995 9.58045 8.21504 9.62131 8.21991C9.66217 8.22478 9.70358 8.21881 9.7414 8.2026C9.77922 8.18638 9.8121 8.1605 9.83674 8.12755L14.2383 2.25001C14.2644 2.21519 14.2803 2.17378 14.2842 2.13043C14.2881 2.08708 14.2799 2.0435 14.2604 2.00457C14.241 1.96564 14.2111 1.9329 14.174 1.91001C14.137 1.88713 14.0943 1.87501 14.0508 1.87501H7.13206ZM24.6053 3.40196L22.1866 9.04864C22.1713 9.08429 22.1652 9.12316 22.1687 9.16176C22.1722 9.20036 22.1852 9.23749 22.2066 9.26983C22.2279 9.30217 22.257 9.32871 22.2911 9.34706C22.3253 9.36542 22.3634 9.37502 22.4022 9.37501H28.3201C28.3619 9.37503 28.403 9.36387 28.439 9.3427C28.475 9.32153 28.5047 9.29111 28.525 9.2546C28.5454 9.21808 28.5556 9.1768 28.5546 9.13503C28.5536 9.09325 28.5414 9.0525 28.5194 9.017L25.0196 3.37091C24.9969 3.33456 24.9648 3.30509 24.9266 3.28572C24.8885 3.26634 24.8457 3.25779 24.803 3.26099C24.7603 3.26419 24.7193 3.27902 24.6845 3.30387C24.6496 3.32872 24.6222 3.36265 24.6053 3.40196ZM4.98049 3.37325L1.48186 9.017C1.45982 9.0525 1.44767 9.09325 1.44667 9.13503C1.44567 9.1768 1.45585 9.21808 1.47617 9.2546C1.49649 9.29111 1.5262 9.32153 1.56223 9.3427C1.59826 9.36387 1.63929 9.37503 1.68108 9.37501H7.59905C7.63783 9.37496 7.676 9.36529 7.71013 9.34687C7.74426 9.32844 7.77328 9.30183 7.79459 9.26942C7.8159 9.23702 7.82884 9.19983 7.83224 9.1612C7.83565 9.12256 7.82941 9.08369 7.81409 9.04806L5.39065 3.40431C5.37332 3.36597 5.34599 3.333 5.31152 3.30887C5.27706 3.28474 5.23673 3.27033 5.19478 3.26715C5.15283 3.26398 5.11079 3.27215 5.07309 3.29082C5.03538 3.30949 5.0034 3.33796 4.98049 3.37325ZM23.0432 1.87501H15.6926C15.6714 1.87487 15.6506 1.88067 15.6325 1.89175C15.6144 1.90283 15.5998 1.91875 15.5903 1.93771C15.5808 1.95667 15.5767 1.97791 15.5787 1.99904C15.5806 2.02016 15.5884 2.04032 15.6012 2.05724L20.284 8.29513C20.296 8.31115 20.3119 8.32374 20.3303 8.33162C20.3487 8.3395 20.3688 8.3424 20.3886 8.34003C20.4085 8.33765 20.4274 8.33008 20.4434 8.31808C20.4593 8.30608 20.4719 8.29008 20.4797 8.27169L22.9453 2.51954L23.1446 2.03087C23.1516 2.0141 23.1544 1.99587 23.1529 1.97775C23.1513 1.95964 23.1454 1.94217 23.1356 1.92685C23.1258 1.91153 23.1124 1.89881 23.0966 1.88978C23.0809 1.88075 23.0631 1.87568 23.0449 1.87501H23.0432ZM14.0039 26.25L8.76389 11.3971C8.74851 11.3539 8.72013 11.3166 8.68267 11.2903C8.64521 11.264 8.60051 11.2499 8.55471 11.25H1.50588C1.46505 11.2499 1.42501 11.2612 1.39031 11.2828C1.35562 11.3043 1.32767 11.3352 1.30966 11.3718C1.29164 11.4084 1.28428 11.4494 1.28841 11.49C1.29254 11.5307 1.30801 11.5693 1.33303 11.6016L13.9893 27.9967C14.0321 28.0522 14.0932 28.0907 14.1618 28.1054C14.2303 28.1201 14.3019 28.11 14.3637 28.077C14.4259 28.0442 14.4742 27.9903 14.4999 27.9249C14.5256 27.8595 14.527 27.787 14.5037 27.7207L14.0039 26.25ZM28.4942 11.25H21.4453C21.3998 11.25 21.3554 11.2641 21.3182 11.2905C21.281 11.3168 21.253 11.3541 21.2379 11.3971L15.484 27.6955C15.4598 27.7639 15.4608 27.8387 15.4868 27.9065C15.5128 27.9742 15.5621 28.0305 15.6258 28.0652C15.6895 28.0998 15.7635 28.1105 15.8344 28.0956C15.9053 28.0807 15.9687 28.0411 16.0131 27.9838L28.667 11.6016C28.692 11.5693 28.7075 11.5307 28.7116 11.49C28.7158 11.4494 28.7084 11.4084 28.6904 11.3718C28.6724 11.3352 28.6444 11.3043 28.6097 11.2828C28.575 11.2612 28.535 11.2499 28.4942 11.25ZM15.1875 4.62481L18.4688 9.00001C18.4949 9.03483 18.5108 9.07624 18.5147 9.11959C18.5186 9.16294 18.5104 9.20652 18.4909 9.24545C18.4714 9.28438 18.4415 9.31712 18.4045 9.34001C18.3675 9.36289 18.3248 9.37501 18.2813 9.37501H11.7188C11.6752 9.37501 11.6326 9.36289 11.5956 9.34001C11.5585 9.31712 11.5286 9.28438 11.5091 9.24545C11.4897 9.20652 11.4814 9.16294 11.4853 9.11959C11.4893 9.07624 11.5052 9.03483 11.5313 9.00001L14.8125 4.62481C14.8344 4.59571 14.8627 4.57208 14.8952 4.55581C14.9278 4.53954 14.9636 4.53106 15 4.53106C15.0364 4.53106 15.0723 4.53954 15.1048 4.55581C15.1374 4.57208 15.1657 4.59571 15.1875 4.62481ZM14.7774 22.807L10.8106 11.5623C10.7981 11.527 10.7943 11.4892 10.7995 11.4521C10.8046 11.415 10.8186 11.3796 10.8403 11.349C10.8619 11.3185 10.8906 11.2935 10.9238 11.2763C10.9571 11.259 10.994 11.25 11.0315 11.25H18.9686C19.006 11.25 19.043 11.259 19.0762 11.2763C19.1095 11.2935 19.1382 11.3185 19.1598 11.349C19.1814 11.3796 19.1954 11.415 19.2006 11.4521C19.2057 11.4892 19.2019 11.527 19.1895 11.5623L15.2209 22.807C15.2047 22.8527 15.1748 22.8922 15.1353 22.9201C15.0957 22.9481 15.0485 22.9631 15 22.9631C14.9516 22.9631 14.9044 22.9481 14.8648 22.9201C14.8252 22.8922 14.7953 22.8527 14.7791 22.807H14.7774Z" fill="#111111"/>
</svg>
