<svg width="25" height="25" viewBox="0 0 25 25" fill="none" xmlns="http://www.w3.org/2000/svg">
<path d="M21.6553 20.5176L16.4404 15.2539C17.4609 13.9746 18.0762 12.3535 18.0762 10.5908C18.0762 6.46484 14.7314 3.12012 10.6006 3.12012C6.46973 3.12012 3.125 6.46973 3.125 10.5957C3.125 14.7217 6.46973 18.0664 10.6006 18.0664C12.3877 18.0664 14.0234 17.4414 15.3125 16.3965L20.4932 21.626C20.6494 21.792 20.8643 21.875 21.0742 21.875C21.2744 21.875 21.4746 21.8018 21.626 21.6553C21.9482 21.3477 21.958 20.8398 21.6553 20.5176ZM10.6006 16.46C9.0332 16.46 7.55859 15.8496 6.4502 14.7412C5.3418 13.6328 4.73145 12.1582 4.73145 10.5957C4.73145 9.02832 5.3418 7.55371 6.4502 6.4502C7.55859 5.3418 9.0332 4.73145 10.6006 4.73145C12.168 4.73145 13.6426 5.3418 14.751 6.4502C15.8594 7.55859 16.4697 9.0332 16.4697 10.5957C16.4697 12.1631 15.8594 13.6377 14.751 14.7412C13.6426 15.8496 12.168 16.46 10.6006 16.46Z" fill="#111111"/>
</svg>
