<svg width="30" height="30" viewBox="0 0 30 30" fill="none" xmlns="http://www.w3.org/2000/svg">
<g clip-path="url(#clip0_420_1257)">
<path d="M14.3385 14.7135C14.7031 15.0989 15.2969 15.0989 15.6667 14.7135L21.3385 8.76561C22.9844 7.03644 22.8906 4.17186 21.0469 2.57811C19.4427 1.18748 17.0521 1.43748 15.5833 2.97915L15 3.58852L14.4219 2.98436C12.9531 1.43748 10.5625 1.18748 8.95833 2.57811C7.11979 4.17186 7.02083 7.03644 8.66667 8.76561L14.3385 14.7135ZM29.4427 18.7552C28.8281 18.1979 27.8698 18.2344 27.224 18.7552L22.4115 22.6041C21.8229 23.0781 21.0885 23.3333 20.3281 23.3333H14.1667C13.7083 23.3333 13.3333 22.9583 13.3333 22.5C13.3333 22.0416 13.7083 21.6666 14.1667 21.6666H18.2448C19.0729 21.6666 19.8437 21.0989 19.9792 20.2812C20.151 19.2396 19.349 18.3333 18.3333 18.3333H10C8.59375 18.3333 7.23437 18.8177 6.14062 19.7031L3.71875 21.6666H0.833333C0.375 21.6666 0 22.0416 0 22.5V27.5C0 27.9583 0.375 28.3333 0.833333 28.3333H19.4167C20.1719 28.3333 20.9062 28.0781 21.5 27.6041L29.375 21.3021C30.1667 20.6719 30.2292 19.4635 29.4427 18.7552Z" fill="#111111"/>
</g>
<defs>
<clipPath id="clip0_420_1257">
<rect width="30" height="30" fill="white"/>
</clipPath>
</defs>
</svg>
