<svg width="35" height="36" viewBox="0 0 35 36" fill="none" xmlns="http://www.w3.org/2000/svg">
<path d="M17.5068 10.1387C13.1592 10.1387 9.65234 13.6455 9.65234 17.9932C9.65234 22.3408 13.1592 25.8477 17.5068 25.8477C21.8545 25.8477 25.3613 22.3408 25.3613 17.9932C25.3613 13.6455 21.8545 10.1387 17.5068 10.1387ZM17.5068 23.0996C14.6973 23.0996 12.4004 20.8096 12.4004 17.9932C12.4004 15.1768 14.6904 12.8867 17.5068 12.8867C20.3232 12.8867 22.6133 15.1768 22.6133 17.9932C22.6133 20.8096 20.3164 23.0996 17.5068 23.0996ZM27.5146 9.81738C27.5146 10.8359 26.6943 11.6494 25.6826 11.6494C24.6641 11.6494 23.8506 10.8291 23.8506 9.81738C23.8506 8.80566 24.6709 7.98535 25.6826 7.98535C26.6943 7.98535 27.5146 8.80566 27.5146 9.81738ZM32.7168 11.6768C32.6006 9.22266 32.04 7.04883 30.2422 5.25781C28.4512 3.4668 26.2773 2.90625 23.8232 2.7832C21.2939 2.63965 13.7129 2.63965 11.1836 2.7832C8.73633 2.89941 6.5625 3.45996 4.76465 5.25098C2.9668 7.04199 2.41309 9.21582 2.29004 11.6699C2.14648 14.1992 2.14648 21.7803 2.29004 24.3096C2.40625 26.7637 2.9668 28.9375 4.76465 30.7285C6.5625 32.5195 8.72949 33.0801 11.1836 33.2031C13.7129 33.3467 21.2939 33.3467 23.8232 33.2031C26.2773 33.0869 28.4512 32.5264 30.2422 30.7285C32.0332 28.9375 32.5938 26.7637 32.7168 24.3096C32.8604 21.7803 32.8604 14.2061 32.7168 11.6768ZM29.4492 27.0234C28.916 28.3633 27.8838 29.3955 26.5371 29.9355C24.5205 30.7354 19.7354 30.5508 17.5068 30.5508C15.2783 30.5508 10.4863 30.7285 8.47656 29.9355C7.13672 29.4023 6.10449 28.3701 5.56445 27.0234C4.76465 25.0068 4.94922 20.2217 4.94922 17.9932C4.94922 15.7646 4.77148 10.9727 5.56445 8.96289C6.09766 7.62305 7.12988 6.59082 8.47656 6.05078C10.4932 5.25098 15.2783 5.43555 17.5068 5.43555C19.7354 5.43555 24.5273 5.25781 26.5371 6.05078C27.877 6.58398 28.9092 7.61621 29.4492 8.96289C30.249 10.9795 30.0645 15.7646 30.0645 17.9932C30.0645 20.2217 30.249 25.0137 29.4492 27.0234Z" fill="white"/>
</svg>
