<svg width="30" height="31" viewBox="0 0 30 31" fill="none" xmlns="http://www.w3.org/2000/svg">
<path d="M3.61934 23.9961L4.64473 22.8154C4.8488 22.5879 4.95546 22.2893 4.9418 21.984V21.79C4.9418 21.3594 4.7168 21.125 4.27734 21.125H0.9375C0.81318 21.125 0.693951 21.1744 0.606044 21.2623C0.518136 21.3502 0.46875 21.4694 0.46875 21.5938V22.5312C0.46875 22.6556 0.518136 22.7748 0.606044 22.8627C0.693951 22.9506 0.81318 23 0.9375 23H2.2752C2.04788 23.229 1.83274 23.4698 1.63066 23.7213L1.30195 24.1314C1.06758 24.4285 0.994336 24.725 1.13789 25.0033L1.19941 25.1164C1.3752 25.4539 1.56797 25.5781 1.91719 25.5781H2.19434C2.79961 25.5781 3.12832 25.7211 3.12832 26.1107C3.12832 26.3873 2.88223 26.5924 2.28691 26.5924C1.97586 26.5899 1.66816 26.5279 1.38047 26.4096C1.0002 26.1822 0.692578 26.2045 0.466406 26.5924L0.138867 27.1379C-0.0791016 27.4971 -0.0480469 27.8246 0.292969 28.0719C0.744727 28.3467 1.48711 28.625 2.46094 28.625C4.4625 28.625 5.30273 27.292 5.30273 26.0398C5.30098 25.1973 4.76836 24.2961 3.61934 23.9961ZM29.0625 13.625H10.3125C10.0639 13.625 9.8254 13.7238 9.64959 13.8996C9.47377 14.0754 9.375 14.3139 9.375 14.5625V16.4375C9.375 16.6861 9.47377 16.9246 9.64959 17.1004C9.8254 17.2762 10.0639 17.375 10.3125 17.375H29.0625C29.3111 17.375 29.5496 17.2762 29.7254 17.1004C29.9012 16.9246 30 16.6861 30 16.4375V14.5625C30 14.3139 29.9012 14.0754 29.7254 13.8996C29.5496 13.7238 29.3111 13.625 29.0625 13.625ZM29.0625 4.25H10.3125C10.0639 4.25 9.8254 4.34877 9.64959 4.52459C9.47377 4.7004 9.375 4.93886 9.375 5.1875V7.0625C9.375 7.31114 9.47377 7.5496 9.64959 7.72541C9.8254 7.90123 10.0639 8 10.3125 8H29.0625C29.3111 8 29.5496 7.90123 29.7254 7.72541C29.9012 7.5496 30 7.31114 30 7.0625V5.1875C30 4.93886 29.9012 4.7004 29.7254 4.52459C29.5496 4.34877 29.3111 4.25 29.0625 4.25ZM29.0625 23H10.3125C10.0639 23 9.8254 23.0988 9.64959 23.2746C9.47377 23.4504 9.375 23.6889 9.375 23.9375V25.8125C9.375 26.0611 9.47377 26.2996 9.64959 26.4754C9.8254 26.6512 10.0639 26.75 10.3125 26.75H29.0625C29.3111 26.75 29.5496 26.6512 29.7254 26.4754C29.9012 26.2996 30 26.0611 30 25.8125V23.9375C30 23.6889 29.9012 23.4504 29.7254 23.2746C29.5496 23.0988 29.3111 23 29.0625 23ZM0.9375 9.875H4.6875C4.81182 9.875 4.93105 9.82561 5.01896 9.73771C5.10686 9.6498 5.15625 9.53057 5.15625 9.40625V8.46875C5.15625 8.34443 5.10686 8.2252 5.01896 8.13729C4.93105 8.04939 4.81182 8 4.6875 8H3.75V2.84375C3.75 2.71943 3.70061 2.6002 3.61271 2.51229C3.5248 2.42439 3.40557 2.375 3.28125 2.375H1.875C1.78812 2.37516 1.70298 2.39946 1.62911 2.44519C1.55523 2.49092 1.49552 2.55628 1.45664 2.63398L0.987891 3.57148C0.952161 3.64289 0.935261 3.72223 0.938795 3.802C0.942329 3.88176 0.966179 3.9593 1.00808 4.02727C1.04999 4.09523 1.10856 4.15136 1.17824 4.19034C1.24792 4.22932 1.32641 4.24986 1.40625 4.25H1.875V8H0.9375C0.81318 8 0.693951 8.04939 0.606044 8.13729C0.518136 8.2252 0.46875 8.34443 0.46875 8.46875V9.40625C0.46875 9.53057 0.518136 9.6498 0.606044 9.73771C0.693951 9.82561 0.81318 9.875 0.9375 9.875ZM0.708398 19.25H4.6875C4.81182 19.25 4.93105 19.2006 5.01896 19.1127C5.10686 19.0248 5.15625 18.9056 5.15625 18.7812V17.8438C5.15625 17.7194 5.10686 17.6002 5.01896 17.5123C4.93105 17.4244 4.81182 17.375 4.6875 17.375H2.42109C2.61387 16.7721 5.25352 16.2805 5.25352 14.068C5.25352 12.3652 3.78867 11.75 2.64785 11.75C1.39629 11.75 0.667383 12.3359 0.277148 12.8486C0.0210938 13.1762 0.101367 13.4838 0.441211 13.7492L0.943945 14.1523C1.27266 14.4195 1.58848 14.2971 1.88848 14.0094C2.03645 13.8644 2.2356 13.7835 2.44277 13.7844C2.63789 13.7844 2.98652 13.8758 2.98652 14.2971C2.98828 15.0424 0 15.5768 0 18.3471V18.5814C0 19.0156 0.297656 19.25 0.708398 19.25Z" fill="#111111"/>
</svg>
