<svg width="25" height="26" viewBox="0 0 25 26" fill="none" xmlns="http://www.w3.org/2000/svg">
<path d="M0.65918 5.22656C0.458984 5.02637 0.361328 4.77246 0.361328 4.46484C0.361328 4.15723 0.458984 3.90332 0.65918 3.70312C0.859375 3.50293 1.11328 3.40527 1.4209 3.40527H23.6963C24.0039 3.40527 24.2578 3.50293 24.458 3.70312C24.6582 3.90332 24.7559 4.15723 24.7559 4.46484C24.7559 4.77246 24.6582 5.02637 24.458 5.22656C24.2578 5.42676 24.0039 5.52441 23.6963 5.52441H1.4209C1.11328 5.52441 0.859375 5.42676 0.65918 5.22656ZM24.458 12.1895C24.6582 12.3896 24.7559 12.6436 24.7559 12.9512C24.7559 13.2588 24.6582 13.5127 24.458 13.7129C24.2578 13.9131 24.0039 14.0107 23.6963 14.0107H1.4209C1.11328 14.0107 0.859375 13.9131 0.65918 13.7129C0.458984 13.5127 0.361328 13.2588 0.361328 12.9512C0.361328 12.6436 0.458984 12.3896 0.65918 12.1895C0.859375 11.9893 1.11328 11.8916 1.4209 11.8916H23.6963C24.0039 11.8916 24.2578 11.9893 24.458 12.1895ZM24.458 20.6709C24.6582 20.8711 24.7559 21.125 24.7559 21.4326C24.7559 21.7402 24.6582 21.9941 24.458 22.1943C24.2578 22.3945 24.0039 22.4922 23.6963 22.4922H1.4209C1.11328 22.4922 0.859375 22.3945 0.65918 22.1943C0.458984 21.9941 0.361328 21.7402 0.361328 21.4326C0.361328 21.125 0.458984 20.8711 0.65918 20.6709C0.859375 20.4707 1.11328 20.373 1.4209 20.373H23.6963C24.0039 20.373 24.2578 20.4756 24.458 20.6709Z" fill="white"/>
</svg>
