<svg width="25" height="26" viewBox="0 0 25 26" fill="none" xmlns="http://www.w3.org/2000/svg">
<g clipPath="url(#clip0_578_1507)">
<path d="M11.3281 0.499636C5.07324 0.499636 0 5.57288 0 11.8278C0 12.4772 0.522461 12.9996 1.17188 12.9996C1.82129 12.9996 2.34375 12.4772 2.34375 11.8278C2.34375 6.86682 6.36719 2.84339 11.3281 2.84339C11.9775 2.84339 12.5 2.32093 12.5 1.67151C12.5 1.0221 11.9775 0.499636 11.3281 0.499636ZM10.9375 9.87464C10.5231 9.87464 10.1257 10.0393 9.83265 10.3323C9.53962 10.6253 9.375 11.0227 9.375 11.4371C9.375 11.8515 9.53962 12.249 9.83265 12.542C10.1257 12.835 10.5231 12.9996 10.9375 12.9996C11.3519 12.9996 11.7493 12.835 12.0424 12.542C12.3354 12.249 12.5 11.8515 12.5 11.4371C12.5 11.0227 12.3354 10.6253 12.0424 10.3323C11.7493 10.0393 11.3519 9.87464 10.9375 9.87464ZM12.5 6.35901C12.5 5.7096 11.9775 5.18714 11.3281 5.18714C7.66113 5.18714 4.6875 8.16077 4.6875 11.8278C4.6875 12.4772 5.20996 12.9996 5.85938 12.9996C6.50879 12.9996 7.03125 12.4772 7.03125 11.8278C7.03125 9.45472 8.95508 7.53089 11.3281 7.53089C11.9775 7.53089 12.5 7.00843 12.5 6.35901ZM19.2627 0.567995C18.3154 0.309206 17.3242 0.792605 16.9482 1.70081L14.9951 6.38831C14.6631 7.18421 14.8926 8.10706 15.5615 8.64905L17.9688 10.6217C16.3428 14.0592 13.5596 16.8424 10.1221 18.4684L8.1543 16.0612C7.60742 15.3922 6.68945 15.1627 5.89356 15.4948L1.20606 17.4479C0.297852 17.8239 -0.185547 18.8151 0.0732422 19.7623L1.24512 24.0592C1.47461 24.9088 2.24609 25.4996 3.125 25.4996C15.2051 25.4996 25 15.7047 25 3.62464C25 2.74573 24.4092 1.97425 23.5596 1.73987L19.2627 0.567995Z" fill="white"/>
</g>
<defs>
<clipPath id="clip0_578_1507">
<rect width="25" height="25" fill="white" transform="matrix(-1 0 0 1 25 0.5)"/>
</clipPath>
</defs>
</svg>
