<svg width="25" height="25" viewBox="0 0 25 25" fill="none" xmlns="http://www.w3.org/2000/svg">
<g clip-path="url(#clip0_610_914)">
<path d="M5.46876 19.5331C5.46876 19.7403 5.38645 19.939 5.23994 20.0855C5.09342 20.232 4.89471 20.3143 4.68751 20.3143C4.48031 20.3143 4.2816 20.232 4.13508 20.0855C3.98857 19.939 3.90626 19.7403 3.90626 19.5331V5.79402L2.11564 7.58621C1.96894 7.7329 1.76997 7.81532 1.56251 7.81532C1.35505 7.81532 1.15608 7.7329 1.00939 7.58621C0.862687 7.43951 0.780273 7.24054 0.780273 7.03308C0.780273 6.82562 0.862687 6.62665 1.00939 6.47996L4.13439 3.35652L4.14532 3.34558C4.292 3.20255 4.48926 3.12328 4.69413 3.12504C4.89899 3.12679 5.09487 3.20943 5.23907 3.35496L8.36407 6.47996C8.43671 6.55249 8.49435 6.63862 8.5337 6.73343C8.57305 6.82824 8.59334 6.92988 8.59341 7.03253C8.59349 7.13518 8.57334 7.23684 8.53412 7.33171C8.49491 7.42657 8.43739 7.51279 8.36485 7.58543C8.29232 7.65806 8.20619 7.7157 8.11138 7.75505C8.01657 7.7944 7.91493 7.81469 7.81228 7.81477C7.70963 7.81484 7.60797 7.79469 7.5131 7.75547C7.41824 7.71626 7.33202 7.65874 7.25938 7.58621L5.46876 5.79402V19.5331Z" fill="#111111"/>
<path d="M14.0004 7C14.1431 6.42863 14.4729 5.9214 14.9371 5.559C15.4013 5.1966 15.9734 4.99983 16.5624 5H19.9384C20.5273 4.99983 21.0994 5.1966 21.5636 5.559C22.0279 5.9214 22.3576 6.42863 22.5004 7C22.6422 7.56729 22.5863 8.16598 22.3419 8.69723C22.0976 9.22847 21.6794 9.66051 21.1564 9.922L15.2804 12.86C14.6255 13.1875 14.0965 13.7213 13.7749 14.379C13.4532 15.0368 13.3568 15.782 13.5004 16.5C13.6414 17.205 14.0224 17.8394 14.5784 18.2952C15.1345 18.7511 15.8314 19.0001 16.5504 19H19.4384C20.0273 19.0002 20.5994 18.8034 21.0636 18.441C21.5279 18.0786 21.8576 17.5714 22.0004 17" stroke="#111111" stroke-width="2" stroke-linecap="round" stroke-linejoin="round"/>
<path d="M12 9.99976H24" stroke="#111111" stroke-width="2" stroke-linecap="round" stroke-linejoin="round"/>
<path d="M12 14H24" stroke="#111111" stroke-width="2" stroke-linecap="round" stroke-linejoin="round"/>
</g>
<defs>
<clipPath id="clip0_610_914">
<rect width="25" height="25" fill="white"/>
</clipPath>
</defs>
</svg>
