<svg width="25" height="25" viewBox="0 0 25 25" fill="none" xmlns="http://www.w3.org/2000/svg">
<g clip-path="url(#clip0_599_281)">
<path d="M5.46876 3.90625C5.46876 3.69905 5.38645 3.50034 5.23994 3.35382C5.09342 3.20731 4.89471 3.125 4.68751 3.125C4.48031 3.125 4.2816 3.20731 4.13508 3.35382C3.98857 3.50034 3.90626 3.69905 3.90626 3.90625V17.6453L2.11564 15.8531C1.96894 15.7064 1.76997 15.624 1.56251 15.624C1.35505 15.624 1.15608 15.7064 1.00939 15.8531C0.862687 15.9998 0.780273 16.1988 0.780273 16.4062C0.780273 16.6137 0.862687 16.8127 1.00939 16.9594L4.13439 20.0828L4.14532 20.0938C4.292 20.2368 4.48926 20.3161 4.69413 20.3143C4.89899 20.3125 5.09487 20.2299 5.23907 20.0844L8.36407 16.9594C8.43671 16.8868 8.49435 16.8007 8.5337 16.7059C8.57305 16.6111 8.59334 16.5095 8.59341 16.4068C8.59349 16.3042 8.57334 16.2025 8.53412 16.1076C8.49491 16.0128 8.43739 15.9265 8.36485 15.8539C8.29232 15.7813 8.20619 15.7236 8.11138 15.6843C8.01657 15.6449 7.91493 15.6246 7.81228 15.6246C7.70963 15.6245 7.60797 15.6446 7.5131 15.6839C7.41824 15.7231 7.33202 15.7806 7.25938 15.8531L5.46876 17.6453V3.90625Z" fill="#111111"/>
<path d="M14.0004 7C14.1431 6.42863 14.4729 5.9214 14.9371 5.559C15.4013 5.1966 15.9734 4.99983 16.5624 5H19.9384C20.5273 4.99983 21.0994 5.1966 21.5636 5.559C22.0279 5.9214 22.3576 6.42863 22.5004 7C22.6422 7.56729 22.5863 8.16598 22.3419 8.69723C22.0976 9.22847 21.6794 9.66051 21.1564 9.922L15.2804 12.86C14.6255 13.1875 14.0965 13.7213 13.7749 14.379C13.4532 15.0368 13.3568 15.782 13.5004 16.5C13.6414 17.205 14.0224 17.8394 14.5784 18.2952C15.1345 18.7511 15.8314 19.0001 16.5504 19H19.4384C20.0273 19.0002 20.5994 18.8034 21.0636 18.441C21.5279 18.0786 21.8576 17.5714 22.0004 17" stroke="#111111" stroke-width="2" stroke-linecap="round" stroke-linejoin="round"/>
<path d="M12 9.99976H24" stroke="#111111" stroke-width="2" stroke-linecap="round" stroke-linejoin="round"/>
<path d="M12 14H24" stroke="#111111" stroke-width="2" stroke-linecap="round" stroke-linejoin="round"/>
</g>
<defs>
<clipPath id="clip0_599_281">
<rect width="25" height="25" fill="white"/>
</clipPath>
</defs>
</svg>
