<svg width="30" height="30" viewBox="0 0 30 30" fill="none" xmlns="http://www.w3.org/2000/svg">
<path d="M1.725 12H28.275C29.2266 12 30 11.2266 30 10.275C30 9.93281 29.8969 9.6 29.7094 9.31875L26.1656 4.00312C25.7484 3.375 25.05 3 24.2953 3H5.70469C4.95469 3 4.25156 3.375 3.83438 4.00312L0.290625 9.31406C0.103125 9.6 0 9.93281 0 10.2703C0 11.2266 0.773438 12 1.725 12ZM3 13.5V21V24.75C3 25.9922 4.00781 27 5.25 27H15.75C16.9922 27 18 25.9922 18 24.75V21V13.5H15V21H6V13.5H3ZM24 13.5V25.5C24 26.3297 24.6703 27 25.5 27C26.3297 27 27 26.3297 27 25.5V13.5H24Z" fill="white"/>
</svg>
