<svg width="30" height="30" viewBox="0 0 30 30" fill="none" xmlns="http://www.w3.org/2000/svg">
<path d="M19.4906 3.78398C18.3504 2.55293 16.7578 1.875 15 1.875C13.2328 1.875 11.635 2.54883 10.5 3.77227C9.35273 5.00918 8.79375 6.69023 8.925 8.50547C9.18516 12.0867 11.9104 15 15 15C18.0896 15 20.8102 12.0873 21.0744 8.50664C21.2074 6.70781 20.6449 5.03027 19.4906 3.78398ZM25.3125 28.125H4.6875C4.41754 28.1285 4.15019 28.0718 3.9049 27.959C3.65961 27.8462 3.44256 27.6801 3.26953 27.4728C2.88867 27.0176 2.73516 26.3959 2.84883 25.7672C3.34336 23.0238 4.88672 20.7193 7.3125 19.1016C9.46758 17.6654 12.1975 16.875 15 16.875C17.8025 16.875 20.5324 17.666 22.6875 19.1016C25.1133 20.7187 26.6566 23.0232 27.1512 25.7666C27.2648 26.3953 27.1113 27.017 26.7305 27.4723C26.5575 27.6796 26.3405 27.8458 26.0952 27.9587C25.8499 28.0716 25.5825 28.1284 25.3125 28.125Z" fill="#111111"/>
</svg>
